<?xml version="1.0" encoding="UTF-8" standalone="no"?>
<svg width="354px" height="354px" viewBox="0 0 354 354" version="1.1" xmlns="http://www.w3.org/2000/svg" xmlns:xlink="http://www.w3.org/1999/xlink" xmlns:sketch="http://www.bohemiancoding.com/sketch/ns">
    <!-- Generator: Sketch 3.3.3 (12072) - http://www.bohemiancoding.com/sketch -->
    <title>Five Planes Logo (Green)</title>
    <desc>Created with Sketch.</desc>
    <defs></defs>
    <g id="Page-1" stroke="none" stroke-width="1" fill="none" fill-rule="evenodd" sketch:type="MSPage">
        <g id="Five-Planes-Logo-(Green)" sketch:type="MSLayerGroup" transform="translate(-21.000000, -21.000000)">
            <g id="Page-1">
                <g id="Five-Planes-Logo---Final">
                    <g id="Layer_1"></g>
                    <g id="Layer_2" transform="translate(21.000000, 21.000000)" fill="#FFFFFF" sketch:type="MSShapeGroup">
                        <g id="Group">
                            <path d="M177,10.726 C221.413,10.726 263.168,28.022 294.573,59.427 C325.979,90.832 343.274,132.587 343.274,177 C343.274,221.413 325.979,263.169 294.573,294.573 C263.169,325.978 221.413,343.274 177,343.274 C132.587,343.274 90.832,325.978 59.427,294.574 C28.022,263.169 10.727,221.413 10.727,177 C10.727,132.587 28.022,90.831 59.427,59.427 C90.832,28.021 132.586,10.726 177,10.726 L177,10.726 L177,10.726 Z M177,0.726 C79.646,0.726 0.727,79.647 0.727,177 C0.727,274.353 79.646,353.274 177,353.274 C274.354,353.274 353.274,274.353 353.274,177 C353.274,79.647 274.354,0.726 177,0.726 L177,0.726 L177,0.726 Z" id="Shape"></path>
                            <path d="M162.056,334.416 C166.875,334.853 171.738,335.083 176.635,335.083 C179.129,335.083 181.615,335.021 184.09,334.907 L280.805,181.409 L251.463,193.703 L162.056,334.416 L162.056,334.416 Z" id="Shape"></path>
                            <path d="M236.338,158.653 L129.941,328.37 C137.443,330.692 145.136,332.459 152.976,333.644 L272.695,143.745 L236.338,158.653 L236.338,158.653 Z" id="Shape"></path>
                            <path d="M20.931,206.174 C26.759,237.246 41.757,265.835 64.596,288.675 C81.181,305.259 100.796,317.706 122.191,325.515 L258.57,108.958 L20.931,206.174 L20.931,206.174 Z" id="Shape"></path>
                            <path d="M227.137,87.558 L18.225,173.583 C18.206,174.6 18.188,175.616 18.188,176.636 C18.188,183.854 18.679,190.995 19.623,198.03 L205.737,121.776 L227.137,87.558 L227.137,87.558 Z" id="Shape"></path>
                            <path d="M173.623,101.438 L191.598,73.7 L21.83,142.647 C20.242,149.948 19.158,157.395 18.611,164.949 L173.623,101.438 L173.623,101.438 Z" id="Shape"></path>
                        </g>
                    </g>
                </g>
            </g>
        </g>
    </g>
</svg>